# Exported from Wings 3D 1.0.1
mtllib cyl_textured.mtl
o cylinder1
#32 vertices, 18 faces
v 1.00000000 1.00000000 0.0000000e+0
v 0.92387953 1.00000000 0.38268343
v 0.70710678 1.00000000 0.70710678
v 0.38268343 1.00000000 0.92387953
v 6.1232340e-17 1.00000000 1.00000000
v -0.38268343 1.00000000 0.92387953
v -0.70710678 1.00000000 0.70710678
v -0.92387953 1.00000000 0.38268343
v -1.00000000 1.00000000 1.2246468e-16
v -0.92387953 1.00000000 -0.38268343
v -0.70710678 1.00000000 -0.70710678
v -0.38268343 1.00000000 -0.92387953
v -1.8369702e-16 1.00000000 -1.00000000
v 0.38268343 1.00000000 -0.92387953
v 0.70710678 1.00000000 -0.70710678
v 0.92387953 1.00000000 -0.38268343
v 1.00000000 -1.00000000 0.0000000e+0
v 0.92387953 -1.00000000 0.38268343
v 0.70710678 -1.00000000 0.70710678
v 0.38268343 -1.00000000 0.92387953
v 6.1232340e-17 -1.00000000 1.00000000
v -0.38268343 -1.00000000 0.92387953
v -0.70710678 -1.00000000 0.70710678
v -0.92387953 -1.00000000 0.38268343
v -1.00000000 -1.00000000 1.2246468e-16
v -0.92387953 -1.00000000 -0.38268343
v -0.70710678 -1.00000000 -0.70710678
v -0.38268343 -1.00000000 -0.92387953
v -1.8369702e-16 -1.00000000 -1.00000000
v 0.38268343 -1.00000000 -0.92387953
v 0.70710678 -1.00000000 -0.70710678
v 0.92387953 -1.00000000 -0.38268343
vt 0.0000000e+0 2.2204460e-16
vt 5.5511151e-17 0.51002017
vt 3.1554695e-2 0.75930276
vt 4.9337177e-2 0.84870134
vt 4.9337177e-2 0.66990418
vt 6.2500000e-2 1.3877788e-16
vt 6.2500000e-2 0.51002017
vt 9.9977404e-2 0.92448979
vt 9.9977404e-2 0.59411572
vt 0.12500000 4.1633363e-17
vt 0.12500000 0.51002017
vt 0.17576586 0.97513002
vt 0.17576586 0.54347550
vt 0.18750000 0.51002017
vt 0.18750000 0.0000000e+0
vt 0.25000000 0.51002017
vt 0.25000000 1.3877788e-16
vt 0.26516444 0.52569301
vt 0.26516444 0.99291250
vt 0.31250000 0.51002017
vt 0.31250000 4.1633363e-17
vt 0.35456302 0.54347550
vt 0.35456302 0.97513002
vt 0.37500000 0.51002017
vt 0.37500000 2.2204460e-16
vt 0.43035147 0.59411572
vt 0.43035147 0.92448979
vt 0.43750000 0.51002017
vt 0.43750000 3.0531133e-16
vt 0.48099170 0.66990418
vt 0.48099170 0.84870134
vt 0.49877418 0.75930276
vt 0.50000000 0.51002017
vt 0.50000000 2.2204460e-16
vt 0.50210524 0.74918442
vt 0.51988772 0.65978585
vt 0.51988772 0.83858300
vt 0.56250000 0.51002017
vt 0.56250000 2.2204460e-16
vt 0.57052795 0.58399739
vt 0.57052795 0.91437146
vt 0.62500000 1.3877788e-16
vt 0.62500000 0.51002017
vt 0.64631640 0.53335716
vt 0.64631640 0.96501168
vt 0.68750000 2.6367797e-16
vt 0.68750000 0.51002017
vt 0.73571498 0.51557468
vt 0.73571498 0.98279417
vt 0.75000000 0.51002017
vt 0.75000000 3.0531133e-16
vt 0.81250000 2.6367797e-16
vt 0.81250000 0.51002017
vt 0.82511356 0.53335716
vt 0.82511356 0.96501168
vt 0.87500000 3.0531133e-16
vt 0.87500000 0.51002017
vt 0.90090201 0.58399739
vt 0.90090201 0.91437146
vt 0.93750000 4.1633363e-17
vt 0.93750000 0.51002017
vt 0.95154224 0.65978585
vt 0.95154224 0.83858300
vt 0.96932472 0.74918442
vt 1.00000000 2.2204460e-16
vt 1.00000000 0.51002017
vn 0.89090915 0.45418155 -1.6387891e-16
vn 0.82309273 0.45418155 0.34093617
vn 0.62996790 0.45418155 0.62996790
vn 0.34093617 0.45418155 0.82309273
vn 0.0000000e+0 0.45418155 0.89090915
vn -0.34093617 0.45418155 0.82309273
vn -0.62996790 0.45418155 0.62996790
vn -0.82309273 0.45418155 0.34093617
vn -0.89090915 0.45418155 -2.5212141e-17
vn -0.82309273 0.45418155 -0.34093617
vn -0.62996790 0.45418155 -0.62996790
vn -0.34093617 0.45418155 -0.82309273
vn -1.3866677e-16 0.45418155 -0.89090915
vn 0.34093617 0.45418155 -0.82309273
vn 0.62996790 0.45418155 -0.62996790
vn 0.82309273 0.45418155 -0.34093617
vn 0.89090915 -0.45418155 -1.5127284e-16
vn 0.82309273 -0.45418155 0.34093617
vn 0.62996790 -0.45418155 0.62996790
vn 0.34093617 -0.45418155 0.82309273
vn 0.0000000e+0 -0.45418155 0.89090915
vn -0.34093617 -0.45418155 0.82309273
vn -0.62996790 -0.45418155 0.62996790
vn -0.82309273 -0.45418155 0.34093617
vn -0.89090915 -0.45418155 -1.2606070e-17
vn -0.82309273 -0.45418155 -0.34093617
vn -0.62996790 -0.45418155 -0.62996790
vn -0.34093617 -0.45418155 -0.82309273
vn -1.3866677e-16 -0.45418155 -0.89090915
vn 0.34093617 -0.45418155 -0.82309273
vn 0.62996790 -0.45418155 -0.62996790
vn 0.82309273 -0.45418155 -0.34093617
g cylinder1_cylinder1_auv
usemtl cylinder1_auv
f 1/32/1 16/31/16 15/27/15 14/23/14 13/19/13 12/12/12 11/8/11 10/4/10 9/3/9 8/5/8 7/9/7 6/13/6 5/18/5 4/22/4 3/26/3 2/30/2
f 1/14/1 17/15/17 32/17/32 16/16/16
f 2/11/2 18/10/18 17/15/17 1/14/1
f 3/7/3 19/6/19 18/10/18 2/11/2
f 4/2/4 20/1/20 19/6/19 3/7/3
f 5/61/5 21/60/21 20/65/20 4/66/4
f 6/57/6 22/56/22 21/60/21 5/61/5
f 7/53/7 23/52/23 22/56/22 6/57/6
f 8/50/8 24/51/24 23/52/23 7/53/7
f 9/47/9 25/46/25 24/51/24 8/50/8
f 10/43/10 26/42/26 25/46/25 9/47/9
f 11/38/11 27/39/27 26/42/26 10/43/10
f 12/33/12 28/34/28 27/39/27 11/38/11
f 13/28/13 29/29/29 28/34/28 12/33/12
f 14/24/14 30/25/30 29/29/29 13/28/13
f 15/20/15 31/21/31 30/25/30 14/24/14
f 16/16/16 32/17/32 31/21/31 15/20/15
f 18/36/18 19/40/19 20/44/20 21/48/21 22/54/22 23/58/23 24/62/24 25/64/25 26/63/26 27/59/27 28/55/28 29/49/29 30/45/30 31/41/31 32/37/32 17/35/17
